<!-- Generated by IcoMoon.io -->
<svg version="1.1" xmlns="http://www.w3.org/2000/svg" width="67" height="32" viewBox="0 0 67 32">
<title>Cliente-5</title>
<path fill="#afb1b8" d="M23.213 23.238c0.096 0.109 0.148 0.246 0.145 0.386 0.005 0.091-0.013 0.183-0.052 0.267s-0.098 0.16-0.173 0.22c-0.187 0.129-0.419 0.192-0.653 0.178h-1.147v-2.446h1.124c0.222-0.014 0.442 0.044 0.623 0.163 0.073 0.056 0.13 0.126 0.168 0.205s0.055 0.166 0.050 0.252c0.007 0.135-0.040 0.268-0.131 0.374-0.087 0.097-0.208 0.165-0.342 0.191 0.152 0.025 0.29 0.1 0.388 0.209zM21.867 22.869h0.48c0.109 0.007 0.218-0.021 0.305-0.081 0.036-0.030 0.064-0.067 0.082-0.108s0.025-0.086 0.021-0.131c0.003-0.044-0.004-0.089-0.022-0.13s-0.045-0.079-0.080-0.109c-0.090-0.061-0.202-0.091-0.314-0.082h-0.472v0.642zM22.7 23.807c0.039-0.031 0.069-0.069 0.089-0.112s0.028-0.090 0.025-0.136c0.003-0.047-0.006-0.094-0.026-0.138s-0.051-0.082-0.090-0.113c-0.094-0.064-0.21-0.095-0.326-0.088h-0.504v0.673h0.51c0.115 0.006 0.229-0.024 0.322-0.085z"></path>
<path fill="#afb1b8" d="M25.509 24.29l-0.625-0.956h-0.235v0.956h-0.538v-2.446h1.018c0.257-0.016 0.51 0.058 0.709 0.208 0.142 0.133 0.228 0.308 0.242 0.493s-0.045 0.37-0.166 0.519c-0.126 0.132-0.297 0.22-0.485 0.249l0.666 0.977h-0.585zM24.649 23.001h0.44c0.305 0 0.458-0.123 0.458-0.37 0.003-0.050-0.005-0.101-0.025-0.148s-0.049-0.090-0.088-0.127c-0.096-0.073-0.221-0.109-0.346-0.099h-0.445l0.005 0.744z"></path>
<path fill="#afb1b8" d="M28.448 23.798h-1.071l-0.189 0.492h-0.564l0.984-2.419h0.609l0.98 2.419h-0.564l-0.185-0.492zM28.305 23.427l-0.392-1.032-0.392 1.032h0.783z"></path>
<path fill="#afb1b8" d="M32.127 24.29h-0.534l-1.197-1.663v1.663h-0.532v-2.446h0.532l1.197 1.673v-1.673h0.534v2.446z"></path>
<path fill="#afb1b8" d="M35.173 23.704c-0.11 0.185-0.279 0.335-0.483 0.431-0.232 0.107-0.49 0.16-0.75 0.154h-0.95v-2.446h0.95c0.26-0.006 0.517 0.045 0.75 0.151 0.204 0.094 0.373 0.243 0.483 0.427 0.11 0.199 0.167 0.419 0.167 0.642s-0.057 0.443-0.167 0.642zM34.563 23.646c0.152-0.163 0.236-0.37 0.236-0.584s-0.084-0.421-0.236-0.584c-0.184-0.147-0.424-0.222-0.668-0.208h-0.371v1.583h0.371c0.244 0.014 0.484-0.061 0.668-0.208z"></path>
<path fill="#afb1b8" d="M28.783 8.238c0 0 6.889 2.381 6.743 5.828v5.829c0 0-6.884-2.383-6.741-5.829l-0.003-5.828z"></path>
<path fill="#afb1b8" d="M41.663 18.53c1.301-0.82 2.806-1.328 4.377-1.477v-1.825c-1.81 0.639-3.346 1.797-4.377 3.302z"></path>
<path fill="#afb1b8" d="M40.882 19.080c1.065-1.963 2.911-3.479 5.159-4.234v-5.258c0 0-9.811 3.392-9.604 8.3v8.299c0 0 0.437-0.152 1.125-0.436 0-0.265 0-0.533 0.031-0.802 0.203-2.278 1.386-4.39 3.289-5.869z"></path>
<path fill="#afb1b8" d="M39.949 22.163c0.051-0.576 0.166-1.145 0.343-1.699-1.185 1.278-1.902 2.864-2.052 4.535-0.014 0.158-0.022 0.315-0.026 0.478 0.557-0.245 1.206-0.551 1.887-0.911-0.174-0.79-0.225-1.599-0.153-2.403z"></path>
<path fill="#afb1b8" d="M40.339 22.193c-0.065 0.727-0.025 1.459 0.122 2.176 2.681-1.469 5.692-3.738 5.576-6.48v-0.239c-1.915 0.196-3.707 0.963-5.1 2.182-0.326 0.756-0.527 1.551-0.598 2.361z"></path>
</svg>
