<!-- Generated by IcoMoon.io -->
<svg version="1.1" xmlns="http://www.w3.org/2000/svg" width="67" height="32" viewBox="0 0 67 32">
<title>Cliente-1</title>
<path fill="#afb1b8" d="M27.654 8.331l2.768 2.621-5.139-0.003v12.716h13.432v-4.862l2.765 2.618v-13.090h-13.827zM38.595 18.495l-7.85-7.431h7.85v7.431zM36.157 21.804h-8.748v-8.552h0.618v7.973h8.13v0.579zM29.475 25.357l-0.323 0.666-0.323-0.666h-0.271l0.472 0.887v0.517h0.245v-0.517l0.471-0.887h-0.27zM29.881 26.762l0.114-0.327h0.544l0.115 0.327h0.255l-0.531-1.404h-0.219l-0.53 1.404h0.254zM30.267 25.655l0.203 0.583h-0.407l0.204-0.583zM31.554 26.204c-0.035 0.054-0.053 0.113-0.053 0.178 0 0.118 0.041 0.214 0.124 0.288s0.195 0.11 0.334 0.11 0.259-0.038 0.359-0.113l0.079 0.094h0.272l-0.206-0.244c0.081-0.111 0.122-0.252 0.122-0.425h-0.203c0 0.095-0.020 0.18-0.059 0.258l-0.271-0.32 0.096-0.069c0.068-0.049 0.116-0.098 0.146-0.147s0.044-0.104 0.044-0.162c0-0.089-0.033-0.163-0.098-0.223s-0.149-0.091-0.251-0.091c-0.113 0-0.203 0.032-0.27 0.096s-0.1 0.15-0.1 0.26c0 0.045 0.011 0.092 0.032 0.14s0.060 0.107 0.115 0.176c-0.104 0.075-0.174 0.139-0.209 0.194zM32.187 26.515c-0.069 0.053-0.143 0.079-0.222 0.079-0.070 0-0.126-0.020-0.168-0.061s-0.063-0.093-0.063-0.158c0-0.075 0.039-0.142 0.116-0.201l0.030-0.021 0.307 0.362zM31.936 25.893c-0.066-0.082-0.099-0.149-0.099-0.204 0-0.047 0.014-0.086 0.041-0.117s0.063-0.046 0.109-0.046c0.042 0 0.077 0.013 0.105 0.040s0.041 0.057 0.041 0.094c0 0.055-0.020 0.101-0.060 0.136l-0.030 0.024-0.107 0.073zM34.221 26.656c0.096-0.084 0.152-0.201 0.166-0.351h-0.243c-0.013 0.1-0.043 0.172-0.092 0.215s-0.12 0.065-0.216 0.065c-0.105 0-0.185-0.040-0.239-0.12s-0.081-0.195-0.081-0.347v-0.124c0.001-0.15 0.030-0.263 0.087-0.34s0.139-0.117 0.245-0.117c0.091 0 0.16 0.022 0.207 0.068s0.077 0.117 0.089 0.218h0.243c-0.015-0.154-0.070-0.273-0.165-0.357s-0.219-0.126-0.374-0.126c-0.115 0-0.217 0.027-0.305 0.082s-0.155 0.132-0.202 0.233-0.070 0.218-0.070 0.35v0.131c0.002 0.129 0.026 0.243 0.072 0.34s0.112 0.173 0.197 0.227c0.086 0.053 0.184 0.079 0.296 0.079 0.16 0 0.288-0.042 0.385-0.125zM35.656 26.459c0.048-0.104 0.071-0.225 0.071-0.363v-0.078c-0.001-0.137-0.025-0.257-0.073-0.36s-0.117-0.183-0.205-0.237c-0.088-0.055-0.189-0.083-0.304-0.083s-0.216 0.028-0.305 0.084c-0.088 0.055-0.157 0.135-0.205 0.24s-0.072 0.226-0.072 0.363v0.079c0.001 0.134 0.025 0.253 0.073 0.356s0.118 0.182 0.206 0.238c0.089 0.055 0.191 0.083 0.305 0.083 0.115 0 0.217-0.028 0.305-0.083s0.157-0.136 0.204-0.239zM35.394 25.665c0.059 0.083 0.089 0.202 0.089 0.358v0.073c0 0.158-0.029 0.278-0.088 0.361s-0.141 0.123-0.249 0.123c-0.107 0-0.19-0.042-0.251-0.126s-0.090-0.204-0.090-0.358v-0.081c0.001-0.151 0.032-0.268 0.091-0.35s0.142-0.124 0.248-0.124c0.108 0 0.191 0.041 0.25 0.124z"></path>
</svg>
