<!-- Generated by IcoMoon.io -->
<svg version="1.1" xmlns="http://www.w3.org/2000/svg" width="67" height="32" viewBox="0 0 67 32">
<title>Cliente-2</title>
<path fill="#afb1b8" d="M32.44 7.91h-0.054c-0.083-0.005-0.166-0.007-0.249-0.009v0h-0.18c-0.157 0-0.317 0.004-0.476 0.012-0.012-0.001-0.024-0.001-0.036 0-1.44 0.082-2.85 0.441-4.154 1.060l-0.171 0.082v8.747l0.4-0.136c0.351-0.121 0.725-0.229 1.111-0.33 1.046-0.268 2.119-0.411 3.198-0.425v1.149c-0.143 0.001-0.282 0.005-0.421 0.012h-0.033c-0.83 0.046-1.654 0.172-2.461 0.378-1.021 0.256-2.006 0.639-2.931 1.142v-11.218c0.961-0.561 1.997-0.982 3.075-1.251 0.947-0.245 1.921-0.37 2.898-0.374h0.169c0.202 0.005 0.399 0.014 0.584 0.028 0.487 0.034 0.97 0.111 1.444 0.23v1.131c-0.46-0.107-0.928-0.178-1.399-0.211-0.010-0.001-0.019-0.002-0.029-0.002-0.097-0.008-0.195-0.017-0.286-0.017zM34.431 9.066c0.251 0.019 0.511 0.028 0.774 0.028 1.028-0.004 2.051-0.135 3.047-0.391 1.020-0.257 2.005-0.641 2.93-1.143v11.019c-0.962 0.56-1.997 0.981-3.076 1.251-0.947 0.244-1.921 0.369-2.898 0.373-0.741 0.006-1.479-0.081-2.199-0.259v-11.090c0.17 0.039 0.345 0.075 0.523 0.105 0.292 0.049 0.6 0.085 0.899 0.107zM40.038 9.151l-0.4 0.135c-0.368 0.124-0.739 0.234-1.111 0.333-1.085 0.279-2.201 0.422-3.321 0.426-0.261 0-0.501-0.007-0.733-0.022l-0.319-0.021v8.998l0.274 0.024c0.254 0.022 0.516 0.033 0.78 0.033 0.882-0.004 1.761-0.117 2.615-0.339 0.704-0.176 1.388-0.422 2.044-0.734l0.171-0.082v-8.75z"></path>
<path fill="#afb1b8" d="M26.76 23.427c-0.057-0.060-0.127-0.106-0.203-0.137s-0.159-0.045-0.241-0.042c-0.088-0.001-0.175 0.015-0.257 0.048-0.075 0.030-0.143 0.075-0.2 0.132s-0.1 0.126-0.129 0.201c-0.031 0.079-0.047 0.163-0.046 0.248v1.499c-0.004 0.106 0.017 0.211 0.059 0.307 0.035 0.077 0.086 0.145 0.15 0.201 0.060 0.050 0.13 0.087 0.206 0.107 0.073 0.020 0.148 0.031 0.224 0.031 0.083 0.001 0.166-0.017 0.242-0.052 0.075-0.033 0.143-0.080 0.2-0.139 0.056-0.058 0.1-0.126 0.131-0.201 0.032-0.076 0.048-0.157 0.048-0.239v-0.168h-0.392v0.134c0.001 0.046-0.007 0.091-0.023 0.134-0.013 0.032-0.032 0.061-0.057 0.084-0.024 0.020-0.052 0.034-0.082 0.043-0.026 0.009-0.054 0.014-0.082 0.014-0.035 0.004-0.070-0.001-0.103-0.015s-0.060-0.037-0.081-0.065c-0.037-0.060-0.055-0.13-0.052-0.201v-1.397c-0.002-0.078 0.014-0.154 0.048-0.224 0.020-0.032 0.049-0.057 0.083-0.073s0.072-0.022 0.109-0.018c0.034-0.001 0.067 0.006 0.098 0.021s0.057 0.037 0.077 0.064c0.044 0.058 0.067 0.128 0.065 0.201v0.13h0.388v-0.153c0.001-0.090-0.016-0.179-0.048-0.262-0.029-0.078-0.073-0.15-0.131-0.211z"></path>
<path fill="#afb1b8" d="M29.088 23.41c-0.125-0.105-0.283-0.164-0.446-0.165-0.080 0-0.159 0.015-0.234 0.042-0.076 0.027-0.146 0.069-0.207 0.123-0.065 0.058-0.117 0.13-0.152 0.21-0.039 0.092-0.059 0.191-0.057 0.29v1.438c-0.003 0.101 0.017 0.202 0.057 0.294 0.035 0.077 0.087 0.146 0.152 0.201 0.060 0.056 0.13 0.099 0.207 0.127 0.075 0.028 0.154 0.042 0.234 0.042s0.159-0.014 0.234-0.042c0.078-0.028 0.15-0.071 0.212-0.127s0.113-0.124 0.148-0.201c0.040-0.093 0.060-0.193 0.057-0.294v-1.438c0.002-0.1-0.017-0.199-0.057-0.29-0.035-0.079-0.085-0.151-0.148-0.21zM28.905 25.348c0.003 0.038-0.002 0.077-0.015 0.113s-0.035 0.069-0.062 0.095c-0.052 0.043-0.117 0.067-0.184 0.067s-0.133-0.024-0.184-0.067c-0.028-0.027-0.049-0.059-0.062-0.095s-0.019-0.075-0.015-0.113v-1.438c-0.003-0.038 0.002-0.077 0.015-0.113s0.035-0.068 0.062-0.095c0.052-0.043 0.117-0.067 0.184-0.067s0.133 0.024 0.184 0.067c0.028 0.027 0.049 0.059 0.062 0.095s0.019 0.075 0.015 0.113v1.438z"></path>
<path fill="#afb1b8" d="M32.145 25.99v-2.721h-0.377l-0.495 1.441h-0.007l-0.499-1.441h-0.373v2.721h0.389v-1.656h0.007l0.381 1.17h0.194l0.384-1.17h0.007v1.656h0.389z"></path>
<path fill="#afb1b8" d="M34.354 23.459c-0.060-0.067-0.135-0.118-0.22-0.149-0.091-0.030-0.186-0.044-0.282-0.042h-0.578v2.721h0.388v-1.063h0.2c0.121 0.006 0.241-0.020 0.35-0.074 0.088-0.049 0.162-0.121 0.213-0.208 0.045-0.072 0.075-0.153 0.089-0.237 0.015-0.102 0.022-0.206 0.021-0.309 0.004-0.131-0.009-0.261-0.038-0.389-0.026-0.094-0.075-0.18-0.143-0.25zM34.154 24.289c-0.002 0.049-0.014 0.098-0.036 0.142-0.022 0.042-0.057 0.075-0.1 0.095-0.057 0.026-0.12 0.037-0.183 0.034h-0.177v-0.925h0.2c0.060-0.003 0.12 0.009 0.175 0.034 0.040 0.023 0.072 0.058 0.091 0.1 0.021 0.048 0.033 0.099 0.034 0.152 0 0.057 0 0.118 0 0.181s0.004 0.129 0 0.187h-0.004z"></path>
<path fill="#afb1b8" d="M36.191 23.268h-0.318l-0.6 2.721h0.388l0.114-0.585h0.529l0.114 0.585h0.388l-0.615-2.721zM35.833 25.034l0.191-0.986h0.007l0.19 0.986h-0.388z"></path>
<path fill="#afb1b8" d="M38.696 24.908h-0.007l-0.586-1.639h-0.373v2.721h0.388v-1.637h0.008l0.593 1.637h0.365v-2.721h-0.388v1.639z"></path>
<path fill="#afb1b8" d="M41.066 23.268l-0.312 1.082h-0.008l-0.312-1.082h-0.411l0.533 1.571v1.15h0.388v-1.15l0.533-1.571h-0.41z"></path>
</svg>
