<!-- Generated by IcoMoon.io -->
<svg version="1.1" xmlns="http://www.w3.org/2000/svg" width="67" height="32" viewBox="0 0 67 32">
<title>Cliente-4</title>
<path fill="#2196f3" d="M22.181 13.902h-0.001c-0.947 0-1.715 0.682-1.715 1.524v0.001c0 0.842 0.768 1.524 1.715 1.524h0.001c0.947 0 1.715-0.683 1.715-1.524v-0.001c0-0.842-0.768-1.524-1.715-1.524z"></path>
<path fill="#2196f3" d="M34.842 13.415c-0.003-1.169-0.526-2.29-1.457-3.117s-2.191-1.293-3.507-1.295v0c-1.316 0.002-2.578 0.468-3.509 1.295s-1.455 1.948-1.458 3.118v6.449c0 0 9.929-0.983 9.93-6.448v-0.001z"></path>
<path fill="#2196f3" d="M16.988 21.98c0.002 0.814 0.367 1.593 1.014 2.169s1.525 0.9 2.44 0.902c0.915-0.002 1.792-0.327 2.44-0.902s1.012-1.355 1.015-2.168v-4.487c0 0-6.909 0.684-6.909 4.486zM20.442 22.784c-0.179 0-0.354-0.047-0.503-0.136s-0.265-0.214-0.333-0.361c-0.068-0.147-0.086-0.309-0.051-0.465s0.121-0.299 0.248-0.412c0.127-0.112 0.288-0.189 0.463-0.22s0.357-0.015 0.523 0.046c0.165 0.061 0.307 0.164 0.406 0.296s0.152 0.288 0.152 0.447c0 0.106-0.023 0.211-0.068 0.309s-0.112 0.187-0.196 0.262c-0.084 0.075-0.184 0.134-0.294 0.175s-0.228 0.061-0.347 0.061v-0.003z"></path>
<path fill="#2196f3" d="M26.758 21.345v1.685h-0.347v-1.685h0.347zM27.429 22.064v0.271h-0.766v-0.271h0.766zM27.51 21.345v0.272h-0.847v-0.272h0.847zM29.096 22.148v0.080c0 0.128-0.017 0.243-0.052 0.345s-0.084 0.189-0.147 0.26c-0.063 0.071-0.139 0.125-0.227 0.163s-0.184 0.057-0.291 0.057c-0.106 0-0.203-0.019-0.291-0.057s-0.163-0.092-0.227-0.163c-0.064-0.072-0.114-0.159-0.149-0.26s-0.052-0.217-0.052-0.345v-0.080c0-0.129 0.017-0.244 0.052-0.345s0.084-0.189 0.147-0.26c0.064-0.072 0.14-0.127 0.227-0.164s0.185-0.057 0.291-0.057c0.106 0 0.203 0.019 0.291 0.057s0.164 0.093 0.227 0.164c0.064 0.072 0.113 0.159 0.148 0.26s0.053 0.216 0.053 0.345zM28.745 22.228v-0.082c0-0.090-0.008-0.168-0.024-0.236s-0.040-0.125-0.072-0.171c-0.032-0.046-0.070-0.081-0.116-0.104s-0.098-0.036-0.156-0.036-0.111 0.012-0.156 0.036c-0.045 0.023-0.083 0.058-0.115 0.104s-0.054 0.103-0.071 0.171c-0.016 0.068-0.024 0.147-0.024 0.236v0.082c0 0.089 0.008 0.167 0.024 0.236s0.040 0.125 0.072 0.172c0.032 0.046 0.070 0.081 0.116 0.105s0.098 0.036 0.156 0.036c0.059 0 0.111-0.012 0.156-0.036s0.084-0.059 0.115-0.105c0.031-0.047 0.054-0.105 0.071-0.172s0.024-0.147 0.024-0.236zM30.223 22.589c0-0.030-0.005-0.057-0.014-0.081s-0.025-0.047-0.049-0.067c-0.024-0.021-0.057-0.041-0.101-0.061s-0.099-0.041-0.168-0.063c-0.076-0.025-0.149-0.052-0.218-0.083s-0.128-0.067-0.181-0.108c-0.052-0.042-0.093-0.090-0.123-0.145s-0.044-0.118-0.044-0.191c0-0.070 0.015-0.134 0.046-0.191s0.074-0.107 0.13-0.148c0.056-0.042 0.121-0.074 0.197-0.096s0.16-0.034 0.251-0.034c0.124 0 0.233 0.022 0.325 0.067s0.164 0.106 0.215 0.184c0.052 0.078 0.078 0.167 0.078 0.267h-0.345c0-0.049-0.010-0.093-0.031-0.13s-0.051-0.068-0.093-0.089c-0.041-0.022-0.093-0.032-0.155-0.032-0.060 0-0.11 0.009-0.15 0.028s-0.070 0.042-0.090 0.073c-0.020 0.030-0.030 0.064-0.030 0.102 0 0.029 0.007 0.054 0.021 0.078s0.036 0.045 0.065 0.065c0.029 0.020 0.064 0.039 0.105 0.057s0.090 0.035 0.145 0.052c0.092 0.028 0.172 0.059 0.242 0.094s0.129 0.074 0.176 0.117c0.047 0.043 0.083 0.092 0.106 0.147s0.036 0.117 0.036 0.186c0 0.073-0.014 0.139-0.043 0.197s-0.070 0.107-0.124 0.147-0.118 0.071-0.193 0.091c-0.075 0.021-0.159 0.031-0.251 0.031-0.083 0-0.166-0.011-0.247-0.032s-0.155-0.056-0.221-0.101c-0.066-0.045-0.118-0.102-0.157-0.171s-0.059-0.152-0.059-0.247h0.348c0 0.052 0.008 0.097 0.024 0.133s0.039 0.066 0.068 0.088c0.030 0.022 0.066 0.039 0.107 0.049s0.087 0.015 0.137 0.015c0.060 0 0.11-0.009 0.148-0.025s0.068-0.041 0.087-0.071c0.019-0.030 0.029-0.064 0.029-0.102zM31.56 21.345v1.685h-0.346v-1.685h0.346zM32.078 21.345v0.272h-1.375v-0.272h1.375zM33.407 22.759v0.271h-0.897v-0.271h0.897zM32.623 21.345v1.685h-0.347v-1.685h0.347zM33.29 22.031v0.264h-0.78v-0.264h0.78zM33.406 21.345v0.272h-0.896v-0.272h0.896zM33.609 21.345h0.628c0.129 0 0.24 0.019 0.332 0.058s0.165 0.096 0.215 0.171c0.050 0.076 0.075 0.169 0.075 0.279 0 0.090-0.015 0.168-0.046 0.233s-0.073 0.118-0.128 0.161c-0.055 0.042-0.119 0.076-0.193 0.102l-0.11 0.058h-0.546l-0.002-0.271h0.406c0.061 0 0.111-0.011 0.152-0.032s0.070-0.052 0.090-0.090c0.021-0.039 0.031-0.083 0.031-0.134 0-0.054-0.010-0.101-0.030-0.14s-0.051-0.069-0.091-0.090c-0.041-0.021-0.092-0.031-0.154-0.031h-0.281v1.413h-0.347v-1.685zM34.552 23.030l-0.384-0.751 0.367-0.002 0.389 0.737v0.016h-0.372zM36.374 22.429h-0.429v-0.271h0.429c0.066 0 0.12-0.011 0.162-0.032s0.072-0.053 0.091-0.093c0.019-0.039 0.029-0.084 0.029-0.133s-0.010-0.097-0.029-0.14c-0.019-0.043-0.050-0.078-0.091-0.104s-0.096-0.039-0.162-0.039h-0.309v1.413h-0.347v-1.685h0.656c0.132 0 0.245 0.024 0.339 0.072s0.167 0.112 0.218 0.196c0.050 0.083 0.075 0.179 0.075 0.286 0 0.109-0.025 0.203-0.075 0.282s-0.123 0.141-0.218 0.184c-0.094 0.043-0.207 0.065-0.339 0.065zM38.377 22.759v0.271h-0.897v-0.271h0.897zM37.593 21.345v1.685h-0.347v-1.685h0.347zM38.26 22.031v0.264h-0.78v-0.264h0.78zM38.376 21.345v0.272h-0.896v-0.272h0.896zM39.356 21.345v1.685h-0.346v-1.685h0.346zM39.874 21.345v0.272h-1.375v-0.272h1.375zM41.203 22.759v0.271h-0.897v-0.271h0.897zM40.42 21.345v1.685h-0.347v-1.685h0.347zM41.086 22.031v0.264h-0.78v-0.264h0.78zM41.202 21.345v0.272h-0.896v-0.272h0.896zM41.406 21.345h0.629c0.129 0 0.24 0.019 0.332 0.058s0.165 0.096 0.215 0.171 0.075 0.169 0.075 0.279c0 0.090-0.015 0.168-0.046 0.233s-0.073 0.118-0.128 0.161c-0.055 0.042-0.119 0.076-0.193 0.102l-0.11 0.058h-0.546l-0.002-0.271h0.406c0.061 0 0.111-0.011 0.152-0.032s0.070-0.052 0.090-0.090c0.021-0.039 0.031-0.083 0.031-0.134 0-0.054-0.010-0.101-0.030-0.14s-0.051-0.069-0.091-0.090c-0.041-0.021-0.092-0.031-0.154-0.031h-0.281v1.413h-0.347v-1.685zM42.348 23.030l-0.384-0.751 0.367-0.002 0.389 0.737v0.016h-0.371zM43.802 22.589c0-0.030-0.005-0.057-0.014-0.081s-0.025-0.047-0.049-0.067c-0.024-0.021-0.058-0.041-0.101-0.061s-0.099-0.041-0.168-0.063c-0.077-0.025-0.149-0.052-0.218-0.083s-0.128-0.067-0.181-0.108c-0.052-0.042-0.092-0.090-0.123-0.145-0.029-0.055-0.044-0.118-0.044-0.191 0-0.070 0.015-0.134 0.046-0.191s0.074-0.107 0.13-0.148c0.056-0.042 0.121-0.074 0.197-0.096s0.16-0.034 0.251-0.034c0.124 0 0.233 0.022 0.326 0.067s0.164 0.106 0.215 0.184c0.052 0.078 0.078 0.167 0.078 0.267h-0.345c0-0.049-0.011-0.093-0.031-0.13s-0.051-0.068-0.093-0.089c-0.041-0.022-0.092-0.032-0.155-0.032-0.060 0-0.111 0.009-0.151 0.028s-0.070 0.042-0.090 0.073c-0.020 0.030-0.030 0.064-0.030 0.102 0 0.029 0.007 0.054 0.021 0.078s0.036 0.045 0.065 0.065c0.028 0.020 0.064 0.039 0.105 0.057s0.090 0.035 0.145 0.052c0.092 0.028 0.172 0.059 0.242 0.094s0.129 0.074 0.176 0.117c0.047 0.043 0.083 0.092 0.107 0.147s0.036 0.117 0.036 0.186c0 0.073-0.014 0.139-0.043 0.197s-0.070 0.107-0.124 0.147c-0.054 0.040-0.119 0.071-0.193 0.091s-0.159 0.031-0.251 0.031c-0.083 0-0.166-0.011-0.247-0.032s-0.155-0.056-0.221-0.101c-0.066-0.045-0.118-0.102-0.157-0.171s-0.059-0.152-0.059-0.247h0.348c0 0.052 0.008 0.097 0.025 0.133s0.039 0.066 0.068 0.088c0.030 0.022 0.066 0.039 0.106 0.049 0.042 0.010 0.087 0.015 0.137 0.015 0.060 0 0.109-0.009 0.148-0.025s0.068-0.041 0.087-0.071c0.019-0.030 0.029-0.064 0.029-0.102z"></path>
</svg>
