<!-- Generated by IcoMoon.io -->
<svg version="1.1" xmlns="http://www.w3.org/2000/svg" width="67" height="32" viewBox="0 0 67 32">
<title>Cliente-3</title>
<path fill="#afb1b8" d="M27.025 24.963c0.006 0 0.012 0.001 0.018 0.004s0.011 0.005 0.015 0.009l0.086 0.082c-0.067 0.067-0.15 0.12-0.242 0.156-0.109 0.040-0.226 0.059-0.344 0.056-0.111 0.002-0.221-0.016-0.323-0.052-0.092-0.034-0.175-0.084-0.243-0.148-0.069-0.066-0.123-0.144-0.157-0.228-0.038-0.094-0.056-0.193-0.055-0.293-0.002-0.1 0.019-0.2 0.059-0.294 0.038-0.085 0.094-0.163 0.167-0.228 0.074-0.064 0.162-0.115 0.259-0.149 0.106-0.036 0.219-0.054 0.333-0.052 0.106-0.002 0.211 0.014 0.309 0.048 0.085 0.032 0.164 0.077 0.232 0.132l-0.072 0.088c-0.005 0.006-0.011 0.012-0.018 0.016-0.009 0.005-0.019 0.007-0.029 0.007s-0.022-0.004-0.031-0.009l-0.039-0.023-0.054-0.030c-0.023-0.011-0.047-0.021-0.072-0.029-0.032-0.010-0.065-0.018-0.098-0.023-0.042-0.007-0.085-0.010-0.128-0.009-0.082-0.001-0.163 0.012-0.239 0.039-0.071 0.025-0.135 0.063-0.187 0.11-0.054 0.051-0.095 0.111-0.122 0.176-0.030 0.075-0.045 0.153-0.044 0.232-0.001 0.080 0.014 0.16 0.044 0.236 0.026 0.065 0.067 0.124 0.12 0.175 0.049 0.048 0.11 0.085 0.179 0.109 0.070 0.025 0.146 0.038 0.222 0.037 0.044 0.001 0.088-0.002 0.131-0.008 0.071-0.008 0.139-0.029 0.199-0.063 0.030-0.017 0.059-0.037 0.085-0.058 0.011-0.009 0.026-0.015 0.041-0.015z"></path>
<path fill="#afb1b8" d="M29.513 24.549c0.001 0.099-0.018 0.198-0.058 0.291-0.035 0.084-0.090 0.161-0.162 0.226s-0.159 0.115-0.255 0.148c-0.211 0.070-0.444 0.070-0.655 0-0.095-0.034-0.182-0.084-0.253-0.149-0.072-0.066-0.128-0.143-0.164-0.228-0.078-0.189-0.078-0.395 0-0.583 0.037-0.085 0.092-0.163 0.164-0.229 0.072-0.062 0.158-0.111 0.253-0.143 0.211-0.071 0.444-0.071 0.655 0 0.096 0.034 0.182 0.084 0.254 0.149 0.071 0.065 0.126 0.142 0.163 0.226 0.040 0.094 0.060 0.193 0.058 0.293zM29.287 24.549c0.002-0.079-0.012-0.159-0.041-0.234-0.024-0.065-0.063-0.124-0.115-0.175-0.051-0.048-0.113-0.086-0.182-0.11-0.153-0.051-0.323-0.051-0.476 0-0.069 0.025-0.132 0.062-0.182 0.11-0.053 0.051-0.092 0.11-0.116 0.175-0.055 0.152-0.055 0.316 0 0.468 0.024 0.065 0.064 0.124 0.116 0.175 0.051 0.048 0.113 0.085 0.182 0.11 0.154 0.050 0.323 0.050 0.476 0 0.069-0.024 0.131-0.062 0.182-0.11 0.052-0.051 0.091-0.11 0.115-0.175 0.029-0.075 0.043-0.154 0.041-0.234z"></path>
<path fill="#afb1b8" d="M31.21 24.795l0.023 0.052c0.009-0.019 0.016-0.036 0.025-0.052s0.018-0.035 0.028-0.051l0.55-0.869c0.011-0.015 0.020-0.024 0.031-0.027 0.015-0.004 0.030-0.005 0.045-0.005h0.163v1.414h-0.193v-1.040c0-0.013 0-0.028 0-0.044-0.001-0.016-0.001-0.032 0-0.049l-0.554 0.882c-0.007 0.013-0.018 0.024-0.032 0.032s-0.031 0.012-0.047 0.012h-0.031c-0.017 0-0.033-0.004-0.047-0.012s-0.025-0.019-0.032-0.032l-0.57-0.887c0 0.017 0 0.034 0 0.051s0 0.032 0 0.045v1.040h-0.186v-1.411h0.163c0.015-0.001 0.031 0.001 0.045 0.005 0.013 0.006 0.024 0.015 0.030 0.027l0.562 0.87c0.011 0.016 0.020 0.033 0.028 0.051z"></path>
<path fill="#afb1b8" d="M33.282 24.724v0.53h-0.215v-1.412h0.48c0.091-0.002 0.181 0.009 0.268 0.031 0.070 0.017 0.134 0.047 0.19 0.088 0.048 0.038 0.085 0.086 0.108 0.139 0.025 0.058 0.038 0.119 0.037 0.181 0.001 0.062-0.013 0.123-0.040 0.181-0.026 0.054-0.066 0.103-0.116 0.141-0.055 0.043-0.12 0.074-0.191 0.094-0.084 0.023-0.172 0.034-0.26 0.033l-0.261-0.004zM33.282 24.573h0.261c0.057 0.001 0.113-0.007 0.167-0.022 0.045-0.013 0.086-0.034 0.121-0.061 0.032-0.026 0.057-0.058 0.073-0.094 0.018-0.038 0.026-0.078 0.026-0.119 0.003-0.039-0.005-0.078-0.022-0.115s-0.042-0.069-0.075-0.096c-0.082-0.056-0.186-0.083-0.29-0.076h-0.261v0.582z"></path>
<path fill="#afb1b8" d="M36.177 25.256h-0.17c-0.017 0.001-0.034-0.004-0.047-0.013-0.012-0.009-0.022-0.020-0.028-0.033l-0.147-0.342h-0.736l-0.152 0.342c-0.006 0.013-0.015 0.023-0.027 0.032-0.014 0.010-0.031 0.015-0.048 0.014h-0.17l0.646-1.414h0.224l0.655 1.414zM35.111 24.731h0.608l-0.256-0.576c-0.020-0.043-0.036-0.088-0.048-0.133l-0.025 0.074c-0.008 0.022-0.016 0.043-0.024 0.060l-0.254 0.575z"></path>
<path fill="#afb1b8" d="M37.108 23.849c0.013 0.006 0.024 0.015 0.032 0.025l0.942 1.066c0-0.017 0-0.034 0-0.050s0-0.032 0-0.047v-1.001h0.193v1.414h-0.108c-0.015 0-0.030-0.003-0.044-0.008s-0.025-0.016-0.034-0.026l-0.941-1.065c0.001 0.016 0.001 0.032 0 0.049 0 0.016 0 0.030 0 0.043v1.008h-0.193v-1.414h0.114c0.013-0 0.027 0.002 0.039 0.007z"></path>
<path fill="#afb1b8" d="M39.863 24.694v0.562h-0.215v-0.562l-0.596-0.852h0.193c0.017-0.001 0.033 0.003 0.046 0.012 0.012 0.009 0.022 0.020 0.029 0.032l0.373 0.549c0.015 0.023 0.028 0.045 0.039 0.066s0.020 0.040 0.027 0.060l0.028-0.061c0.010-0.022 0.023-0.044 0.036-0.065l0.367-0.553c0.008-0.011 0.017-0.021 0.028-0.030 0.013-0.010 0.029-0.015 0.046-0.014h0.195l-0.597 0.855z"></path>
<path fill="#afb1b8" d="M31.104 21.469c0.094 0.010 0.189 0.019 0.284 0.026 1.453-0.565 2.683-1.489 3.535-2.658s1.289-2.53 1.255-3.913l-1.602-1.392c0.326 1.473 0.173 2.995-0.44 4.396s-1.663 2.627-3.033 3.54z"></path>
<path fill="#afb1b8" d="M30.532 21.404l0.043 0.007c1.463-0.909 2.579-2.179 3.203-3.645s0.727-3.061 0.296-4.579l-2.281-1.982c0.923 1.629 1.294 3.453 1.071 5.258s-1.032 3.519-2.331 4.941z"></path>
<path fill="#afb1b8" d="M38.269 16.558c-0.388 1.52-1.329 2.89-2.684 3.908-0.396 0.299-0.823 0.565-1.275 0.795 1.104-0.282 2.118-0.78 2.965-1.456s1.504-1.513 1.92-2.444l-0.925-0.803z"></path>
<path fill="#afb1b8" d="M37.906 16.335l-1.317-1.145c-0.025 1.305-0.452 2.58-1.237 3.693s-1.898 2.023-3.224 2.636h0.006c0.296-0 0.591-0.015 0.884-0.046 1.239-0.44 2.334-1.139 3.187-2.036s1.437-1.963 1.7-3.103z"></path>
<path fill="#afb1b8" d="M30.723 10.37l-1.572-1.367c-1.405 0.472-2.613 1.301-3.467 2.379s-1.312 2.355-1.317 3.664v0c0.005 1.446 0.565 2.849 1.592 3.987s2.46 1.947 4.075 2.297c1.441-1.526 2.285-3.411 2.409-5.382s-0.479-3.925-1.721-5.578z"></path>
<path fill="#afb1b8" d="M41.537 16.124c-0.006-1.716-0.792-3.359-2.189-4.573s-3.288-1.897-5.263-1.902c-0.912-0.001-1.817 0.145-2.668 0.431l9.622 8.36c0.329-0.739 0.499-1.525 0.498-2.317z"></path>
</svg>
