<!-- Generated by IcoMoon.io -->
<svg version="1.1" xmlns="http://www.w3.org/2000/svg" width="67" height="32" viewBox="0 0 67 32">
<title>Cliente-6</title>
<path fill="#afb1b8" d="M33.748 16.393c-0.175-0.233-0.259-0.508-0.239-0.786v-1.139c0-0.349 0.079-0.615 0.238-0.796s0.43-0.272 0.816-0.271c0.362 0 0.62 0.077 0.772 0.232 0.166 0.197 0.247 0.438 0.228 0.681v0.268h-0.648v-0.271c0.002-0.089-0.004-0.178-0.019-0.265-0.009-0.060-0.042-0.116-0.093-0.158-0.067-0.045-0.15-0.067-0.235-0.061-0.089-0.006-0.177 0.017-0.247 0.065-0.056 0.046-0.094 0.107-0.107 0.174-0.019 0.093-0.027 0.187-0.025 0.282v1.382c-0.010 0.133 0.018 0.267 0.083 0.388 0.032 0.041 0.077 0.074 0.129 0.094s0.11 0.028 0.167 0.022c0.083 0.006 0.165-0.017 0.23-0.063 0.053-0.045 0.087-0.104 0.097-0.168 0.015-0.092 0.022-0.184 0.020-0.277v-0.28h0.648v0.256c0.018 0.253-0.061 0.505-0.224 0.716-0.149 0.169-0.403 0.254-0.776 0.254s-0.655-0.090-0.815-0.278z"></path>
<path fill="#afb1b8" d="M36.447 16.405c-0.164-0.177-0.246-0.436-0.246-0.777v-1.198c0-0.338 0.082-0.594 0.246-0.768s0.438-0.26 0.821-0.26c0.381 0 0.654 0.087 0.817 0.26s0.247 0.43 0.247 0.768v1.198c0 0.338-0.083 0.598-0.25 0.776s-0.438 0.268-0.815 0.268c-0.377 0-0.656-0.090-0.821-0.267zM37.571 16.117c0.059-0.111 0.085-0.233 0.078-0.355v-1.467c0.008-0.12-0.019-0.239-0.077-0.348-0.033-0.042-0.079-0.075-0.132-0.096s-0.113-0.028-0.171-0.020c-0.058-0.007-0.118 0-0.171 0.021s-0.1 0.053-0.133 0.095c-0.059 0.108-0.086 0.228-0.078 0.348v1.474c-0.008 0.122 0.019 0.244 0.078 0.355 0.038 0.037 0.084 0.067 0.137 0.088s0.109 0.031 0.167 0.031c0.057 0 0.114-0.011 0.167-0.031s0.099-0.050 0.137-0.088v-0.007z"></path>
<path fill="#afb1b8" d="M39.112 13.436h0.698l0.525 2.211 0.537-2.211h0.679l0.069 3.191h-0.502l-0.054-2.218-0.518 2.218h-0.403l-0.537-2.226-0.050 2.226h-0.507l0.063-3.191z"></path>
<path fill="#afb1b8" d="M42.402 13.436h1.087c0.626 0 0.939 0.302 0.939 0.906 0 0.579-0.33 0.867-0.989 0.867h-0.37v1.418h-0.671l0.004-3.191zM43.331 14.8c0.066 0.007 0.134 0.002 0.198-0.015s0.122-0.047 0.171-0.085c0.077-0.108 0.111-0.234 0.097-0.36 0.004-0.097-0.008-0.195-0.032-0.29-0.009-0.032-0.026-0.062-0.049-0.088s-0.052-0.048-0.085-0.064c-0.093-0.039-0.196-0.056-0.299-0.051h-0.26v0.954h0.26z"></path>
<path fill="#afb1b8" d="M45.396 13.436h0.721l0.74 3.191h-0.626l-0.146-0.736h-0.643l-0.151 0.736h-0.634l0.739-3.191zM46.012 15.522l-0.251-1.339-0.251 1.339h0.502z"></path>
<path fill="#afb1b8" d="M47.454 13.436h0.47l0.899 1.82v-1.82h0.557v3.191h-0.447l-0.905-1.9v1.9h-0.576l0.001-3.191z"></path>
<path fill="#afb1b8" d="M50.684 15.41l-0.747-1.97h0.63l0.456 1.265 0.428-1.265h0.616l-0.738 1.97v1.217h-0.644v-1.217z"></path>
<path fill="#afb1b8" d="M34.784 18.022v0.167h-0.548v1.297h-0.23v-1.297h-0.55v-0.167h1.327z"></path>
<path fill="#afb1b8" d="M36.501 19.486h-0.177c-0.018 0.001-0.036-0.004-0.050-0.014-0.013-0.009-0.024-0.020-0.029-0.034l-0.158-0.348h-0.76l-0.158 0.348c-0.005 0.015-0.013 0.028-0.024 0.039-0.014 0.010-0.032 0.015-0.050 0.014h-0.177l0.671-1.463h0.234l0.679 1.458zM35.389 18.942h0.634l-0.268-0.596c-0.020-0.045-0.036-0.091-0.050-0.138-0.009 0.028-0.017 0.054-0.025 0.078l-0.024 0.061-0.266 0.594z"></path>
<path fill="#afb1b8" d="M37.658 19.342c0.042 0.002 0.084 0.002 0.126 0 0.036-0.003 0.072-0.009 0.107-0.017 0.033-0.007 0.065-0.016 0.097-0.027 0.030-0.010 0.059-0.023 0.090-0.036v-0.329h-0.268c-0.007 0-0.013-0.001-0.020-0.003s-0.012-0.005-0.017-0.009c-0.004-0.003-0.008-0.007-0.010-0.012s-0.003-0.010-0.003-0.015v-0.112h0.521v0.561c-0.042 0.026-0.087 0.049-0.134 0.070-0.048 0.020-0.098 0.037-0.149 0.050-0.055 0.014-0.111 0.024-0.168 0.030-0.065 0.006-0.13 0.009-0.196 0.009-0.116 0.001-0.231-0.018-0.338-0.054-0.1-0.035-0.192-0.087-0.268-0.153-0.075-0.067-0.134-0.145-0.173-0.232-0.042-0.097-0.063-0.2-0.062-0.304-0.001-0.104 0.019-0.208 0.060-0.306 0.039-0.087 0.098-0.166 0.173-0.232 0.077-0.066 0.168-0.117 0.268-0.152 0.115-0.037 0.237-0.056 0.36-0.054 0.063-0 0.125 0.004 0.187 0.013 0.055 0.008 0.108 0.020 0.16 0.037 0.047 0.015 0.092 0.035 0.134 0.058 0.041 0.023 0.080 0.048 0.117 0.076l-0.064 0.090c-0.005 0.008-0.013 0.015-0.022 0.020s-0.020 0.008-0.031 0.008c-0.015-0-0.029-0.004-0.042-0.012-0.020-0.009-0.042-0.021-0.066-0.035-0.029-0.015-0.059-0.029-0.090-0.039-0.040-0.014-0.081-0.025-0.123-0.032-0.056-0.009-0.113-0.013-0.17-0.013-0.089-0.001-0.176 0.013-0.259 0.041-0.075 0.026-0.142 0.065-0.197 0.116-0.056 0.053-0.098 0.115-0.125 0.182-0.060 0.159-0.060 0.329 0 0.488 0.029 0.069 0.075 0.132 0.134 0.184 0.055 0.050 0.122 0.090 0.196 0.116 0.085 0.025 0.176 0.035 0.266 0.029z"></path>
<path fill="#afb1b8" d="M39.797 19.319h0.733v0.167h-0.957v-1.463h0.23l-0.006 1.297z"></path>
<path fill="#afb1b8" d="M41.292 19.486h-0.23v-1.463h0.23v1.463z"></path>
<path fill="#afb1b8" d="M42.146 18.029c0.014 0.007 0.026 0.016 0.035 0.027l0.981 1.103c-0.001-0.017-0.001-0.035 0-0.052 0-0.016 0-0.032 0-0.047v-1.043h0.2v1.469h-0.115c-0.017 0.001-0.034-0.002-0.050-0.008-0.014-0.007-0.026-0.017-0.036-0.028l-0.98-1.102c0 0.017 0 0.034 0 0.050s0 0.031 0 0.045v1.043h-0.192v-1.464h0.119c0.013 0 0.026 0.002 0.038 0.007z"></path>
<path fill="#afb1b8" d="M45.051 18.022v0.161h-0.813v0.483h0.659v0.155h-0.659v0.499h0.813v0.161h-1.049v-1.46h1.049z"></path>
<path fill="#afb1b8" d="M21.002 8.985l10.191 2.498v8.754l-10.191-2.497v-8.755zM20.349 8.238v9.926l11.497 2.819v-9.925l-11.497-2.82z"></path>
<path fill="#afb1b8" d="M26.51 25.592l-11.498-2.821v-9.925l11.498 2.82v9.926z"></path>
<path fill="#afb1b8" d="M20.539 8.872l10.058 2.467-4.277 3.694-10.059-2.468 4.279-3.693zM20.349 8.238l-5.336 4.607 11.498 2.82 5.335-4.607-11.497-2.82z"></path>
<path fill="#afb1b8" d="M27.157 25.033l4.688-4.048-4.688-1.151v5.199z"></path>
</svg>
